<svg xmlns="http://www.w3.org/2000/svg" viewBox="0 0 64 64" fill="none">
  <defs>
    <linearGradient id="g1" x1="10%" y1="10%" x2="90%" y2="90%">
      <stop offset="0%" stop-color="#4da6e8"/>
      <stop offset="50%" stop-color="#1a6bb5"/>
      <stop offset="100%" stop-color="#0d4a8a"/>
    </linearGradient>
    <linearGradient id="g2" x1="0%" y1="0%" x2="100%" y2="0%">
      <stop offset="0%" stop-color="#3b9fd9" stop-opacity="0.4"/>
      <stop offset="50%" stop-color="#2196F3"/>
      <stop offset="100%" stop-color="#1565C0"/>
    </linearGradient>
    <linearGradient id="g3" x1="0%" y1="0%" x2="100%" y2="0%">
      <stop offset="0%" stop-color="#9e9e9e" stop-opacity="0.3"/>
      <stop offset="100%" stop-color="#757575" stop-opacity="0.6"/>
    </linearGradient>
  </defs>
  <!-- Globe -->
  <circle cx="28" cy="32" r="24" fill="url(#g1)"/>
  <!-- Highlight -->
  <ellipse cx="22" cy="24" rx="12" ry="10" fill="white" opacity="0.18"/>
  <!-- Continents -->
  <ellipse cx="22" cy="28" rx="7" ry="10" fill="white" opacity="0.25"/>
  <ellipse cx="34" cy="32" rx="5" ry="8" fill="white" opacity="0.2"/>
  <circle cx="26" cy="18" r="5" fill="white" opacity="0.18"/>
  <!-- Grid lines -->
  <ellipse cx="28" cy="32" rx="24" ry="8" stroke="white" stroke-width="0.7" fill="none" opacity="0.2"/>
  <ellipse cx="28" cy="32" rx="24" ry="16" stroke="white" stroke-width="0.7" fill="none" opacity="0.2"/>
  <ellipse cx="28" cy="32" rx="9" ry="24" stroke="white" stroke-width="0.7" fill="none" opacity="0.2"/>
  <!-- Swoosh -->
  <path d="M 6 46 Q 28 26 58 32" stroke="url(#g2)" stroke-width="4.5" fill="none" stroke-linecap="round"/>
  <path d="M 10 50 Q 28 34 54 38" stroke="url(#g3)" stroke-width="2" fill="none" stroke-linecap="round"/>
  <!-- Sparkle -->
  <circle cx="52" cy="16" r="1.5" fill="white"/>
  <line x1="52" y1="11" x2="52" y2="21" stroke="#4FC3F7" stroke-width="1.2" stroke-linecap="round"/>
  <line x1="47" y1="16" x2="57" y2="16" stroke="#4FC3F7" stroke-width="1.2" stroke-linecap="round"/>
  <line x1="49" y1="13" x2="55" y2="19" stroke="#4FC3F7" stroke-width="0.8" stroke-linecap="round"/>
  <line x1="55" y1="13" x2="49" y2="19" stroke="#4FC3F7" stroke-width="0.8" stroke-linecap="round"/>
</svg>
